<?xml version="1.0" encoding="UTF-8" standalone="no"?>
<!-- Created with Inkscape (http://www.inkscape.org/) -->

<svg
   width="24"
   height="24"
   viewBox="0 0 6.3499999 6.35"
   version="1.1"
   id="svg2180"
   inkscape:version="1.4.2 (ebf0e940d0, 2025-05-08)"
   sodipodi:docname="librewolf.svg"
   xmlns:inkscape="http://www.inkscape.org/namespaces/inkscape"
   xmlns:sodipodi="http://sodipodi.sourceforge.net/DTD/sodipodi-0.dtd"
   xmlns="http://www.w3.org/2000/svg"
   xmlns:svg="http://www.w3.org/2000/svg">
  <sodipodi:namedview
     id="namedview2182"
     pagecolor="#ffffff"
     bordercolor="#000000"
     borderopacity="0.25"
     inkscape:showpageshadow="2"
     inkscape:pageopacity="0.0"
     inkscape:pagecheckerboard="0"
     inkscape:deskcolor="#d1d1d1"
     inkscape:document-units="mm"
     showgrid="false"
     inkscape:zoom="17.093731"
     inkscape:cx="19.656329"
     inkscape:cy="18.457059"
     inkscape:window-width="1880"
     inkscape:window-height="1048"
     inkscape:window-x="0"
     inkscape:window-y="0"
     inkscape:window-maximized="1"
     inkscape:current-layer="layer1" />
  <defs
     id="defs2177">
    <radialGradient
       fx="0"
       fy="0"
       cx="0"
       cy="0"
       r="1"
       gradientUnits="userSpaceOnUse"
       gradientTransform="matrix(0,16.5,-16.5,0,8.999651,0.749985)"
       spreadMethod="pad"
       id="radialGradient868-3">
      <stop
         style="stop-opacity:1;stop-color:#fafafa"
         offset="0"
         id="stop864-6" />
      <stop
         style="stop-opacity:1;stop-color:#c0c0c0"
         offset="1"
         id="stop866-7" />
    </radialGradient>
    <linearGradient
       id="b"
       x1="70.786003"
       x2="6.447"
       y1="12.393"
       y2="74.468002"
       gradientTransform="matrix(0.15246,0,0,0.15246,2.9,2.903)"
       gradientUnits="userSpaceOnUse"
       spreadMethod="pad">
      <stop
         offset="0"
         style="stop-opacity:1;stop-color:#fff44f"
         id="stop61" />
      <stop
         offset=".048"
         style="stop-opacity:1;stop-color:#fff44f"
         id="stop62" />
      <stop
         offset=".111"
         style="stop-opacity:1;stop-color:#ffe847"
         id="stop63" />
      <stop
         offset=".225"
         style="stop-opacity:1;stop-color:#ffc830"
         id="stop64" />
      <stop
         offset=".368"
         style="stop-opacity:1;stop-color:#ff980e"
         id="stop65" />
      <stop
         offset=".401"
         style="stop-opacity:1;stop-color:#ff8b16"
         id="stop66" />
      <stop
         offset=".462"
         style="stop-opacity:1;stop-color:#ff672a"
         id="stop67" />
      <stop
         offset=".534"
         style="stop-opacity:1;stop-color:#ff3647"
         id="stop68" />
      <stop
         offset=".705"
         style="stop-opacity:1;stop-color:#e31587"
         id="stop69" />
      <stop
         offset="1"
         style="stop-opacity:1;stop-color:#e31587"
         id="stop70" />
    </linearGradient>
    <radialGradient
       id="c"
       cx="-7907.187"
       cy="-8515.1211"
       r="80.796997"
       fx="-7907.187"
       fy="-8515.1211"
       gradientTransform="matrix(0.20007,0,0,0.20007,1600.415,1710.517)"
       gradientUnits="userSpaceOnUse"
       spreadMethod="pad">
      <stop
         offset="0"
         style="stop-opacity:1;stop-color:#ffbd4f"
         id="stop3" />
      <stop
         offset=".129"
         style="stop-opacity:1;stop-color:#ffbd4f"
         id="stop4" />
      <stop
         offset=".186"
         style="stop-opacity:1;stop-color:#ffac31"
         id="stop5" />
      <stop
         offset=".247"
         style="stop-opacity:1;stop-color:#ff9d17"
         id="stop6" />
      <stop
         offset=".283"
         style="stop-opacity:1;stop-color:#ff980e"
         id="stop7" />
      <stop
         offset=".403"
         style="stop-opacity:1;stop-color:#ff563b"
         id="stop8" />
      <stop
         offset=".467"
         style="stop-opacity:1;stop-color:#ff3750"
         id="stop9" />
      <stop
         offset=".71"
         style="stop-opacity:1;stop-color:#f5156c"
         id="stop10" />
      <stop
         offset=".782"
         style="stop-opacity:1;stop-color:#eb0878"
         id="stop11" />
      <stop
         offset=".86"
         style="stop-opacity:1;stop-color:#e50080"
         id="stop12" />
      <stop
         offset="1"
         style="stop-opacity:1;stop-color:#e50080"
         id="stop13" />
    </radialGradient>
    <radialGradient
       id="d"
       cx="-7926.9702"
       cy="-8533.457"
       r="58.534"
       fx="-7926.9702"
       fy="-8533.457"
       gradientTransform="matrix(0.15246,0,0,0.15246,1218.794,1302.5)"
       gradientUnits="userSpaceOnUse"
       spreadMethod="pad">
      <stop
         offset="0"
         style="stop-opacity:1;stop-color:#fff44f"
         id="stop14" />
      <stop
         offset=".132"
         style="stop-opacity:1;stop-color:#fff44f"
         id="stop15" />
      <stop
         offset=".252"
         style="stop-opacity:1;stop-color:#ffdc3e"
         id="stop16" />
      <stop
         offset=".506"
         style="stop-opacity:1;stop-color:#ff9d12"
         id="stop17" />
      <stop
         offset=".526"
         style="stop-opacity:1;stop-color:#ff980e"
         id="stop18" />
      <stop
         offset="1"
         style="stop-opacity:1;stop-color:#ff980e"
         id="stop19" />
    </radialGradient>
    <radialGradient
       id="e"
       cx="-7945.6479"
       cy="-8460.9844"
       r="38.471001"
       fx="-7945.6479"
       fy="-8460.9844"
       gradientTransform="matrix(0.15246,0,0,0.15246,1218.794,1302.5)"
       gradientUnits="userSpaceOnUse"
       spreadMethod="pad">
      <stop
         offset="0"
         style="stop-opacity:1;stop-color:#3a8ee6"
         id="stop20" />
      <stop
         offset=".353"
         style="stop-opacity:1;stop-color:#3a8ee6"
         id="stop21" />
      <stop
         offset=".472"
         style="stop-opacity:1;stop-color:#5c79f0"
         id="stop22" />
      <stop
         offset=".669"
         style="stop-opacity:1;stop-color:#9059ff"
         id="stop23" />
      <stop
         offset="1"
         style="stop-opacity:1;stop-color:#c139e6"
         id="stop24" />
    </radialGradient>
    <radialGradient
       id="f"
       cx="-7937.731"
       cy="-8518.4268"
       r="27.676001"
       fx="-7937.731"
       fy="-8518.4268"
       gradientTransform="matrix(0.15246,0,0,0.15246,1218.794,1302.5)"
       gradientUnits="userSpaceOnUse"
       spreadMethod="pad">
      <stop
         offset="0"
         style="stop-opacity:1;stop-color:#ffe226"
         id="stop25" />
      <stop
         offset=".121"
         style="stop-opacity:1;stop-color:#ffdb27"
         id="stop26" />
      <stop
         offset=".295"
         style="stop-opacity:1;stop-color:#ffc82a"
         id="stop27" />
      <stop
         offset=".502"
         style="stop-opacity:1;stop-color:#ffa930"
         id="stop28" />
      <stop
         offset=".732"
         style="stop-opacity:1;stop-color:#ff7e37"
         id="stop29" />
      <stop
         offset=".792"
         style="stop-opacity:1;stop-color:#ff7139"
         id="stop30" />
      <stop
         offset="1"
         style="stop-opacity:1;stop-color:#ff7139"
         id="stop31" />
    </radialGradient>
    <radialGradient
       id="g"
       cx="-7915.9771"
       cy="-8535.9814"
       r="118.081"
       fx="-7915.9771"
       fy="-8535.9814"
       gradientTransform="matrix(0.15246,0,0,0.15246,1218.794,1302.5)"
       gradientUnits="userSpaceOnUse"
       spreadMethod="pad">
      <stop
         offset="0"
         style="stop-opacity:1;stop-color:#fff44f"
         id="stop32" />
      <stop
         offset=".113"
         style="stop-opacity:1;stop-color:#fff44f"
         id="stop33" />
      <stop
         offset=".456"
         style="stop-opacity:1;stop-color:#ff980e"
         id="stop34" />
      <stop
         offset=".622"
         style="stop-opacity:1;stop-color:#ff5634"
         id="stop35" />
      <stop
         offset=".716"
         style="stop-opacity:1;stop-color:#ff3647"
         id="stop36" />
      <stop
         offset=".904"
         style="stop-opacity:1;stop-color:#e31587"
         id="stop37" />
      <stop
         offset="1"
         style="stop-opacity:1;stop-color:#e31587"
         id="stop38" />
    </radialGradient>
    <radialGradient
       id="h"
       cx="-7927.165"
       cy="-8522.8594"
       r="86.499001"
       fx="-7927.165"
       fy="-8522.8594"
       gradientTransform="matrix(0.016,0.1517,-0.09956,0.01052,-711.238,1294.296)"
       gradientUnits="userSpaceOnUse"
       spreadMethod="pad">
      <stop
         offset="0"
         style="stop-opacity:1;stop-color:#fff44f"
         id="stop39" />
      <stop
         offset=".06"
         style="stop-opacity:1;stop-color:#ffe847"
         id="stop40" />
      <stop
         offset=".168"
         style="stop-opacity:1;stop-color:#ffc830"
         id="stop41" />
      <stop
         offset=".304"
         style="stop-opacity:1;stop-color:#ff980e"
         id="stop42" />
      <stop
         offset=".356"
         style="stop-opacity:1;stop-color:#ff8b16"
         id="stop43" />
      <stop
         offset=".455"
         style="stop-opacity:1;stop-color:#ff672a"
         id="stop44" />
      <stop
         offset=".57"
         style="stop-opacity:1;stop-color:#ff3647"
         id="stop45" />
      <stop
         offset=".737"
         style="stop-opacity:1;stop-color:#e31587"
         id="stop46" />
      <stop
         offset="1"
         style="stop-opacity:1;stop-color:#e31587"
         id="stop47" />
    </radialGradient>
    <radialGradient
       id="i"
       cx="-7938.3828"
       cy="-8508.1758"
       r="73.720001"
       fx="-7938.3828"
       fy="-8508.1758"
       gradientTransform="matrix(0.15246,0,0,0.15246,1218.794,1302.5)"
       gradientUnits="userSpaceOnUse"
       spreadMethod="pad">
      <stop
         offset="0"
         style="stop-opacity:1;stop-color:#fff44f"
         id="stop48" />
      <stop
         offset=".137"
         style="stop-opacity:1;stop-color:#fff44f"
         id="stop49" />
      <stop
         offset=".48"
         style="stop-opacity:1;stop-color:#ff980e"
         id="stop50" />
      <stop
         offset=".592"
         style="stop-opacity:1;stop-color:#ff5634"
         id="stop51" />
      <stop
         offset=".655"
         style="stop-opacity:1;stop-color:#ff3647"
         id="stop52" />
      <stop
         offset=".904"
         style="stop-opacity:1;stop-color:#e31587"
         id="stop53" />
      <stop
         offset="1"
         style="stop-opacity:1;stop-color:#e31587"
         id="stop54" />
    </radialGradient>
    <radialGradient
       id="j"
       cx="-7918.9229"
       cy="-8503.8613"
       r="80.685997"
       fx="-7918.9229"
       fy="-8503.8613"
       gradientTransform="matrix(0.15246,0,0,0.15246,1218.794,1302.5)"
       gradientUnits="userSpaceOnUse"
       spreadMethod="pad">
      <stop
         offset="0"
         style="stop-opacity:1;stop-color:#fff44f"
         id="stop55" />
      <stop
         offset=".094"
         style="stop-opacity:1;stop-color:#fff44f"
         id="stop56" />
      <stop
         offset=".231"
         style="stop-opacity:1;stop-color:#ffe141"
         id="stop57" />
      <stop
         offset=".509"
         style="stop-opacity:1;stop-color:#ffaf1e"
         id="stop58" />
      <stop
         offset=".626"
         style="stop-opacity:1;stop-color:#ff980e"
         id="stop59" />
      <stop
         offset="1"
         style="stop-opacity:1;stop-color:#ff980e"
         id="stop60" />
    </radialGradient>
    <radialGradient
       id="paint0_radial_0_1"
       cx="0"
       cy="0"
       r="1"
       gradientUnits="userSpaceOnUse"
       gradientTransform="matrix(0,7.7735806,-7.7735806,0,11.999992,4.2264299)">
      <stop
         stop-color="#6EBBF7"
         id="stop322"
         offset="0"
         style="stop-color:#70d0ff;stop-opacity:1;" />
      <stop
         offset="1"
         stop-color="#2196F3"
         id="stop324"
         style="stop-color:#00acff;stop-opacity:1;" />
    </radialGradient>
  </defs>
  <g
     inkscape:label="Camada 1"
     inkscape:groupmode="layer"
     id="layer1">
    <g
       id="g854"
       transform="matrix(0.35277777,0,0,0.35277777,-1.197e-4,-9.3e-6)">
      <g
         id="g856">
        <g
           id="g862">
          <path
             d="m 7.195,0.836 c 0.09,0 0.176,-0.012 0.258,-0.035 1.078,-0.071 2.156,-0.067 3.231,0.008 0.976,0.078 1.921,0.289 2.836,0.636 1.519,0.625 2.558,1.711 3.121,3.254 0.316,0.93 0.507,1.887 0.566,2.867 0.078,1.235 0.051,2.465 -0.086,3.696 -0.105,0.863 -0.328,1.691 -0.672,2.488 -0.637,1.383 -1.672,2.336 -3.101,2.859 C 12.191,17 11,17.207 9.773,17.227 8.398,17.301 7.035,17.195 5.684,16.918 3.203,16.367 1.668,14.852 1.09,12.375 0.844,11.262 0.73,10.133 0.754,8.992 0.727,7.781 0.855,6.582 1.141,5.402 1.75,3.09 3.219,1.656 5.547,1.102 6.09,0.969 6.641,0.879 7.195,0.836 Z"
             style="fill:url(#radialGradient868-3);fill-rule:evenodd;stroke:none"
             id="path870" />
        </g>
      </g>
    </g>
    <g
       id="g1"
       transform="scale(0.26458333)">
      <path
         fill-rule="evenodd"
         clip-rule="evenodd"
         d="m 10.301139,4.3067027 c 0.08469,8.975e-4 0.165641,-0.00989 0.242854,-0.032366 1.014671,-0.066467 2.029194,-0.063771 3.043717,0.00809 0.919897,0.071672 1.810396,0.2712556 2.671426,0.5987495 1.43147,0.5893363 2.411012,1.6115339 2.938485,3.0665786 0.301685,0.8760331 0.479771,1.7768639 0.534327,2.7024782 0.0754,1.162292 0.04841,2.32204 -0.08099,3.479243 -0.09682,0.813329 -0.307339,1.595492 -0.631427,2.34642 -0.60111,1.302075 -1.57521,2.200206 -2.922301,2.694394 -1.091623,0.368821 -2.214128,0.563019 -3.367586,0.582524 -1.29741,0.06749 -2.581797,-0.02961 -3.853244,-0.291227 C 6.5361464,18.940263 5.0925218,17.513458 4.5455373,15.181313 4.3134111,14.131456 4.2081773,13.068807 4.2298239,11.993368 4.203921,10.849803 4.3253471,9.722415 4.594108,8.6112311 5.1675156,6.4306499 6.5517713,5.0794107 8.746882,4.5575279 9.2583766,4.4324792 9.7764645,4.3488708 10.301139,4.3067027 Z"
         fill="url(#paint0_radial_0_1)"
         id="path318"
         style="fill:url(#paint0_radial_0_1);stroke-width:0.706689" />
      <g
         id="g1579"
         transform="matrix(1.5847411,0,0,1.5847411,17.034715,-11.914574)">
        <path
           style="fill:#ffffff;stroke-width:0.0273438"
           d="m -3.8858708,20.653113 c -0.980571,-0.125824 -1.91852,-0.516714 -2.737018,-1.140651 -0.266958,-0.2035 -0.767852,-0.70764 -0.986511,-0.992901 -0.612309,-0.798819 -0.993051,-1.705382 -1.118659,-2.663571 -0.05377,-0.410211 -0.05348,-1.164403 5.99e-4,-1.539321 0.270371,-1.874229 1.449875,-3.481825 3.143624,-4.284574 0.787812,-0.373385 1.508913,-0.5314368 2.424649,-0.5314368 1.481141,0 2.79583104,0.5306818 3.86120504,1.5585948 0.51322996,0.495184 0.85739196,0.964859 1.15209996,1.572265 0.3986444,0.821626 0.5600943,1.536299 0.5600943,2.479336 0,1.241437 -0.3585088,2.324069 -1.1031113,3.331211 -0.22127,0.299285 -0.65350996,0.753911 -0.94034296,0.98904 -0.786789,0.644967 -1.78967904,1.081382 -2.78480904,1.211832 -0.343839,0.04507 -1.156099,0.05069 -1.47183,0.01017 z m 2.075482,-1.005658 c 0.599077,-0.188847 1.08728004,-0.442625 1.55859304,-0.810193 0.250614,-0.195449 0.683787,-0.632778 0.865406,-0.873714 0.49260696,-0.653484 0.82778996,-1.472058 0.92641196,-2.262454 0.0475,-0.380691 0.01991,-1.186059 -0.0526,-1.535645 -0.1921,-0.92608 -0.60594996,-1.708316 -1.25793396,-2.377676 -0.406477,-0.417309 -0.776521,-0.692363 -1.25260104,-0.931065 -0.722392,-0.3622 -1.341403,-0.508553 -2.15446,-0.509378 -0.860684,-8.27e-4 -1.615372,0.196408 -2.362304,0.617528 -0.679969,0.383366 -1.382905,1.087106 -1.767891,1.769912 -0.283539,0.502881 -0.491068,1.099666 -0.572043,1.645005 -0.05309,0.35756 -0.05414,1.067585 -0.0021,1.409945 0.104187,0.685164 0.364084,1.362336 0.740852,1.930313 0.205744,0.310159 0.199284,0.306718 0.38078,0.202876 0.324668,-0.185755 0.409334,-0.275609 0.586199,-0.622113 0.206822,-0.405193 0.427949,-0.759286 0.627746,-1.005214 0.230632,-0.283886 0.26234,-0.334414 0.378039,-0.602448 0.05822,-0.134865 0.162662,-0.332928 0.232103,-0.440138 l 0.126256,-0.19493 -0.163335,-0.16054 c -0.216954,-0.213241 -0.397419,-0.455055 -0.43137,-0.578019 -0.03468,-0.125582 0.0062,-0.195655 0.169228,-0.289798 0.164808,-0.0952 0.28267,-0.122548 0.723148,-0.16782 0.21447,-0.02204 0.447315,-0.06242 0.520651,-0.09028 0.07297,-0.02773 0.290988,-0.146389 0.484489,-0.263697 0.55868,-0.338694 0.605945,-0.356223 0.940889,-0.348962 0.282897,0.0061 0.28343,0.006 0.451172,-0.09537 0.351517,-0.212485 0.856339,-0.595873 1.52064804,-1.154862 0.127389,-0.107191 0.250103,-0.191333 0.272699,-0.186982 0.09397,0.01811 0.266544,0.44157 0.292761,0.718386 0.0159,0.167886 -0.01658,0.333912 -0.116164,0.593748 -0.02717,0.0709 -0.0397,0.138573 -0.02784,0.150389 0.02847,0.02837 0.126228,-0.09374 0.126228,-0.157663 0,-0.08151 0.05397,-0.09081 0.127391,-0.02196 0.05337,0.05006 0.09939,0.06439 0.206734,0.06439 0.11721,0 0.146225,0.01087 0.191971,0.07191 0.07763,0.103578 0.09583,0.385871 0.03642,0.56475 -0.0578,0.174017 -0.232489,0.374707 -0.391028,0.449228 -0.14186,0.06668 -0.429061,0.347095 -0.563461,0.550142 -0.05145,0.07772 -0.147907,0.239754 -0.214355,0.360068 -0.06645,0.120311 -0.177908,0.302089 -0.247688,0.403952 -0.13730504,0.200434 -0.25488304,0.480023 -0.36837104,0.87596 -0.06667,0.232592 -0.07226,0.293145 -0.07502,0.811884 -0.0033,0.626631 -0.03574,0.780392 -0.205142,0.973337 -0.192598,0.219355 -0.38485,0.701074 -0.401011,1.004796 -0.0102,0.19171 -0.03974,0.378587 -0.08171,0.516985 -0.01848,0.06094 0.01602,0.06023 0.221595,-0.0046 z"
           id="path1573"
           inkscape:connector-curvature="0" />
        <path
           sodipodi:type="star"
           style="fill:#00acff;fill-opacity:1;stroke:none;stroke-width:1.5;stroke-miterlimit:4;stroke-dasharray:none"
           id="path1575"
           sodipodi:sides="4"
           sodipodi:cx="18.854025"
           sodipodi:cy="172.98837"
           sodipodi:r1="1.6036172"
           sodipodi:r2="1.1339285"
           sodipodi:arg1="1.5707963"
           sodipodi:arg2="2.3561945"
           inkscape:flatsided="true"
           inkscape:rounded="0"
           inkscape:randomized="0"
           d="m 18.854025,174.59199 -1.603617,-1.60362 1.603617,-1.60361 1.603617,1.60361 z"
           transform="matrix(0.04795921,0.08306779,-0.2054382,0.1186098,32.011646,-8.4469964)" />
      </g>
    </g>
  </g>
</svg>
