<?xml version="1.0" encoding="UTF-8" standalone="no"?>
<!-- Created with Inkscape (http://www.inkscape.org/) -->

<svg
   width="24"
   height="24"
   viewBox="0 0 6.3499999 6.35"
   version="1.1"
   id="svg2180"
   inkscape:version="1.4.2 (ebf0e940d0, 2025-05-08)"
   sodipodi:docname="firefox.svg"
   xmlns:inkscape="http://www.inkscape.org/namespaces/inkscape"
   xmlns:sodipodi="http://sodipodi.sourceforge.net/DTD/sodipodi-0.dtd"
   xmlns="http://www.w3.org/2000/svg"
   xmlns:svg="http://www.w3.org/2000/svg">
  <sodipodi:namedview
     id="namedview2182"
     pagecolor="#ffffff"
     bordercolor="#000000"
     borderopacity="0.25"
     inkscape:showpageshadow="2"
     inkscape:pageopacity="0.0"
     inkscape:pagecheckerboard="0"
     inkscape:deskcolor="#d1d1d1"
     inkscape:document-units="mm"
     showgrid="false"
     inkscape:zoom="17.093731"
     inkscape:cx="19.656329"
     inkscape:cy="18.457059"
     inkscape:window-width="1880"
     inkscape:window-height="1048"
     inkscape:window-x="0"
     inkscape:window-y="0"
     inkscape:window-maximized="1"
     inkscape:current-layer="layer1" />
  <defs
     id="defs2177">
    <radialGradient
       fx="0"
       fy="0"
       cx="0"
       cy="0"
       r="1"
       gradientUnits="userSpaceOnUse"
       gradientTransform="matrix(0,16.5,-16.5,0,8.999651,0.749985)"
       spreadMethod="pad"
       id="radialGradient868-3">
      <stop
         style="stop-opacity:1;stop-color:#fafafa"
         offset="0"
         id="stop864-6" />
      <stop
         style="stop-opacity:1;stop-color:#c0c0c0"
         offset="1"
         id="stop866-7" />
    </radialGradient>
    <linearGradient
       id="b"
       x1="70.786003"
       x2="6.447"
       y1="12.393"
       y2="74.468002"
       gradientTransform="matrix(0.15246,0,0,0.15246,2.9,2.903)"
       gradientUnits="userSpaceOnUse"
       spreadMethod="pad">
      <stop
         offset="0"
         style="stop-opacity:1;stop-color:#fff44f"
         id="stop61" />
      <stop
         offset=".048"
         style="stop-opacity:1;stop-color:#fff44f"
         id="stop62" />
      <stop
         offset=".111"
         style="stop-opacity:1;stop-color:#ffe847"
         id="stop63" />
      <stop
         offset=".225"
         style="stop-opacity:1;stop-color:#ffc830"
         id="stop64" />
      <stop
         offset=".368"
         style="stop-opacity:1;stop-color:#ff980e"
         id="stop65" />
      <stop
         offset=".401"
         style="stop-opacity:1;stop-color:#ff8b16"
         id="stop66" />
      <stop
         offset=".462"
         style="stop-opacity:1;stop-color:#ff672a"
         id="stop67" />
      <stop
         offset=".534"
         style="stop-opacity:1;stop-color:#ff3647"
         id="stop68" />
      <stop
         offset=".705"
         style="stop-opacity:1;stop-color:#e31587"
         id="stop69" />
      <stop
         offset="1"
         style="stop-opacity:1;stop-color:#e31587"
         id="stop70" />
    </linearGradient>
    <radialGradient
       id="c"
       cx="-7907.187"
       cy="-8515.1211"
       r="80.796997"
       fx="-7907.187"
       fy="-8515.1211"
       gradientTransform="matrix(0.20007,0,0,0.20007,1600.415,1710.517)"
       gradientUnits="userSpaceOnUse"
       spreadMethod="pad">
      <stop
         offset="0"
         style="stop-opacity:1;stop-color:#ffbd4f"
         id="stop3" />
      <stop
         offset=".129"
         style="stop-opacity:1;stop-color:#ffbd4f"
         id="stop4" />
      <stop
         offset=".186"
         style="stop-opacity:1;stop-color:#ffac31"
         id="stop5" />
      <stop
         offset=".247"
         style="stop-opacity:1;stop-color:#ff9d17"
         id="stop6" />
      <stop
         offset=".283"
         style="stop-opacity:1;stop-color:#ff980e"
         id="stop7" />
      <stop
         offset=".403"
         style="stop-opacity:1;stop-color:#ff563b"
         id="stop8" />
      <stop
         offset=".467"
         style="stop-opacity:1;stop-color:#ff3750"
         id="stop9" />
      <stop
         offset=".71"
         style="stop-opacity:1;stop-color:#f5156c"
         id="stop10" />
      <stop
         offset=".782"
         style="stop-opacity:1;stop-color:#eb0878"
         id="stop11" />
      <stop
         offset=".86"
         style="stop-opacity:1;stop-color:#e50080"
         id="stop12" />
      <stop
         offset="1"
         style="stop-opacity:1;stop-color:#e50080"
         id="stop13" />
    </radialGradient>
    <radialGradient
       id="d"
       cx="-7926.9702"
       cy="-8533.457"
       r="58.534"
       fx="-7926.9702"
       fy="-8533.457"
       gradientTransform="matrix(0.15246,0,0,0.15246,1218.794,1302.5)"
       gradientUnits="userSpaceOnUse"
       spreadMethod="pad">
      <stop
         offset="0"
         style="stop-opacity:1;stop-color:#fff44f"
         id="stop14" />
      <stop
         offset=".132"
         style="stop-opacity:1;stop-color:#fff44f"
         id="stop15" />
      <stop
         offset=".252"
         style="stop-opacity:1;stop-color:#ffdc3e"
         id="stop16" />
      <stop
         offset=".506"
         style="stop-opacity:1;stop-color:#ff9d12"
         id="stop17" />
      <stop
         offset=".526"
         style="stop-opacity:1;stop-color:#ff980e"
         id="stop18" />
      <stop
         offset="1"
         style="stop-opacity:1;stop-color:#ff980e"
         id="stop19" />
    </radialGradient>
    <radialGradient
       id="e"
       cx="-7945.6479"
       cy="-8460.9844"
       r="38.471001"
       fx="-7945.6479"
       fy="-8460.9844"
       gradientTransform="matrix(0.15246,0,0,0.15246,1218.794,1302.5)"
       gradientUnits="userSpaceOnUse"
       spreadMethod="pad">
      <stop
         offset="0"
         style="stop-opacity:1;stop-color:#3a8ee6"
         id="stop20" />
      <stop
         offset=".353"
         style="stop-opacity:1;stop-color:#3a8ee6"
         id="stop21" />
      <stop
         offset=".472"
         style="stop-opacity:1;stop-color:#5c79f0"
         id="stop22" />
      <stop
         offset=".669"
         style="stop-opacity:1;stop-color:#9059ff"
         id="stop23" />
      <stop
         offset="1"
         style="stop-opacity:1;stop-color:#c139e6"
         id="stop24" />
    </radialGradient>
    <radialGradient
       id="f"
       cx="-7937.731"
       cy="-8518.4268"
       r="27.676001"
       fx="-7937.731"
       fy="-8518.4268"
       gradientTransform="matrix(0.15246,0,0,0.15246,1218.794,1302.5)"
       gradientUnits="userSpaceOnUse"
       spreadMethod="pad">
      <stop
         offset="0"
         style="stop-opacity:1;stop-color:#ffe226"
         id="stop25" />
      <stop
         offset=".121"
         style="stop-opacity:1;stop-color:#ffdb27"
         id="stop26" />
      <stop
         offset=".295"
         style="stop-opacity:1;stop-color:#ffc82a"
         id="stop27" />
      <stop
         offset=".502"
         style="stop-opacity:1;stop-color:#ffa930"
         id="stop28" />
      <stop
         offset=".732"
         style="stop-opacity:1;stop-color:#ff7e37"
         id="stop29" />
      <stop
         offset=".792"
         style="stop-opacity:1;stop-color:#ff7139"
         id="stop30" />
      <stop
         offset="1"
         style="stop-opacity:1;stop-color:#ff7139"
         id="stop31" />
    </radialGradient>
    <radialGradient
       id="g"
       cx="-7915.9771"
       cy="-8535.9814"
       r="118.081"
       fx="-7915.9771"
       fy="-8535.9814"
       gradientTransform="matrix(0.15246,0,0,0.15246,1218.794,1302.5)"
       gradientUnits="userSpaceOnUse"
       spreadMethod="pad">
      <stop
         offset="0"
         style="stop-opacity:1;stop-color:#fff44f"
         id="stop32" />
      <stop
         offset=".113"
         style="stop-opacity:1;stop-color:#fff44f"
         id="stop33" />
      <stop
         offset=".456"
         style="stop-opacity:1;stop-color:#ff980e"
         id="stop34" />
      <stop
         offset=".622"
         style="stop-opacity:1;stop-color:#ff5634"
         id="stop35" />
      <stop
         offset=".716"
         style="stop-opacity:1;stop-color:#ff3647"
         id="stop36" />
      <stop
         offset=".904"
         style="stop-opacity:1;stop-color:#e31587"
         id="stop37" />
      <stop
         offset="1"
         style="stop-opacity:1;stop-color:#e31587"
         id="stop38" />
    </radialGradient>
    <radialGradient
       id="h"
       cx="-7927.165"
       cy="-8522.8594"
       r="86.499001"
       fx="-7927.165"
       fy="-8522.8594"
       gradientTransform="matrix(0.016,0.1517,-0.09956,0.01052,-711.238,1294.296)"
       gradientUnits="userSpaceOnUse"
       spreadMethod="pad">
      <stop
         offset="0"
         style="stop-opacity:1;stop-color:#fff44f"
         id="stop39" />
      <stop
         offset=".06"
         style="stop-opacity:1;stop-color:#ffe847"
         id="stop40" />
      <stop
         offset=".168"
         style="stop-opacity:1;stop-color:#ffc830"
         id="stop41" />
      <stop
         offset=".304"
         style="stop-opacity:1;stop-color:#ff980e"
         id="stop42" />
      <stop
         offset=".356"
         style="stop-opacity:1;stop-color:#ff8b16"
         id="stop43" />
      <stop
         offset=".455"
         style="stop-opacity:1;stop-color:#ff672a"
         id="stop44" />
      <stop
         offset=".57"
         style="stop-opacity:1;stop-color:#ff3647"
         id="stop45" />
      <stop
         offset=".737"
         style="stop-opacity:1;stop-color:#e31587"
         id="stop46" />
      <stop
         offset="1"
         style="stop-opacity:1;stop-color:#e31587"
         id="stop47" />
    </radialGradient>
    <radialGradient
       id="i"
       cx="-7938.3828"
       cy="-8508.1758"
       r="73.720001"
       fx="-7938.3828"
       fy="-8508.1758"
       gradientTransform="matrix(0.15246,0,0,0.15246,1218.794,1302.5)"
       gradientUnits="userSpaceOnUse"
       spreadMethod="pad">
      <stop
         offset="0"
         style="stop-opacity:1;stop-color:#fff44f"
         id="stop48" />
      <stop
         offset=".137"
         style="stop-opacity:1;stop-color:#fff44f"
         id="stop49" />
      <stop
         offset=".48"
         style="stop-opacity:1;stop-color:#ff980e"
         id="stop50" />
      <stop
         offset=".592"
         style="stop-opacity:1;stop-color:#ff5634"
         id="stop51" />
      <stop
         offset=".655"
         style="stop-opacity:1;stop-color:#ff3647"
         id="stop52" />
      <stop
         offset=".904"
         style="stop-opacity:1;stop-color:#e31587"
         id="stop53" />
      <stop
         offset="1"
         style="stop-opacity:1;stop-color:#e31587"
         id="stop54" />
    </radialGradient>
    <radialGradient
       id="j"
       cx="-7918.9229"
       cy="-8503.8613"
       r="80.685997"
       fx="-7918.9229"
       fy="-8503.8613"
       gradientTransform="matrix(0.15246,0,0,0.15246,1218.794,1302.5)"
       gradientUnits="userSpaceOnUse"
       spreadMethod="pad">
      <stop
         offset="0"
         style="stop-opacity:1;stop-color:#fff44f"
         id="stop55" />
      <stop
         offset=".094"
         style="stop-opacity:1;stop-color:#fff44f"
         id="stop56" />
      <stop
         offset=".231"
         style="stop-opacity:1;stop-color:#ffe141"
         id="stop57" />
      <stop
         offset=".509"
         style="stop-opacity:1;stop-color:#ffaf1e"
         id="stop58" />
      <stop
         offset=".626"
         style="stop-opacity:1;stop-color:#ff980e"
         id="stop59" />
      <stop
         offset="1"
         style="stop-opacity:1;stop-color:#ff980e"
         id="stop60" />
    </radialGradient>
  </defs>
  <g
     inkscape:label="Camada 1"
     inkscape:groupmode="layer"
     id="layer1">
    <g
       id="g854"
       transform="matrix(0.35277777,0,0,0.35277777,-1.197e-4,-9.3e-6)">
      <g
         id="g856">
        <g
           id="g862">
          <path
             d="m 7.195,0.836 c 0.09,0 0.176,-0.012 0.258,-0.035 1.078,-0.071 2.156,-0.067 3.231,0.008 0.976,0.078 1.921,0.289 2.836,0.636 1.519,0.625 2.558,1.711 3.121,3.254 0.316,0.93 0.507,1.887 0.566,2.867 0.078,1.235 0.051,2.465 -0.086,3.696 -0.105,0.863 -0.328,1.691 -0.672,2.488 -0.637,1.383 -1.672,2.336 -3.101,2.859 C 12.191,17 11,17.207 9.773,17.227 8.398,17.301 7.035,17.195 5.684,16.918 3.203,16.367 1.668,14.852 1.09,12.375 0.844,11.262 0.73,10.133 0.754,8.992 0.727,7.781 0.855,6.582 1.141,5.402 1.75,3.09 3.219,1.656 5.547,1.102 6.09,0.969 6.641,0.879 7.195,0.836 Z"
             style="fill:url(#radialGradient868-3);fill-rule:evenodd;stroke:none"
             id="path870" />
        </g>
      </g>
    </g>
    <g
       style="stroke-width:1.01607"
       id="g80"
       transform="matrix(0.26458333,0,0,0.26458333,-1.1152775e-4,2.4324635e-4)">
      <g
         style="stroke-width:1.01607"
         id="g71">
        <path
           d="M 14.473,6.992 C 14.219,6.375 13.695,5.711 13.289,5.5 a 6.19,6.19 0 0 1 0.598,1.793 V 7.301 C 13.219,5.637 12.086,4.965 11.164,3.504 A 4.566,4.566 0 0 1 11.023,3.277 C 11,3.234 10.977,3.195 10.957,3.152 A 1.05,1.05 0 0 1 10.871,2.922 0.017,0.017 0 0 0 10.855,2.906 c -0.003,-0.004 -0.007,-0.004 -0.011,0 L 10.84,2.91 V 2.906 C 9.355,3.773 8.852,5.383 8.805,6.188 A 2.952,2.952 0 0 0 7.18,6.812 1.514,1.514 0 0 0 7.027,6.699 2.757,2.757 0 0 1 7.012,5.254 4.345,4.345 0 0 0 5.59,6.352 H 5.586 C 5.352,6.055 5.367,5.078 5.383,4.875 A 1.13,1.13 0 0 0 5.184,4.977 4.636,4.636 0 0 0 4.605,5.473 5.24,5.24 0 0 0 4.055,6.137 5,5 0 0 0 3.262,7.926 L 3.254,7.965 A 5.832,5.832 0 0 0 3.195,8.332 V 8.348 A 5.172,5.172 0 0 0 3.098,9.16 v 0.031 a 5.912,5.912 0 0 0 5.41,5.883 5.908,5.908 0 0 0 6.324,-4.883 6,6 0 0 1 0.027,-0.23 6.078,6.078 0 0 0 -0.386,-2.969 z M 7.664,11.621 7.746,11.66 7.75,11.664 A 0.862,0.862 0 0 0 7.664,11.621 Z M 13.891,7.305 V 7.297 Z"
           style="fill:url(#b);stroke:none;stroke-width:1.01607"
           transform="matrix(1.31224,0,0,1.31224,0.19,0.19)"
           id="path71" />
      </g>
      <path
         d="m 20.051,10.494 c -0.333,-0.81 -1.02,-1.68 -1.553,-1.958 0.379,0.738 0.645,1.533 0.784,2.353 v 0.016 a 7.01,7.01 0 0 1 -0.241,5.233 c -0.887,1.907 -3.04,3.86 -6.408,3.768 C 9,19.798 5.795,17.1 5.195,13.565 c -0.107,-0.559 0,-0.841 0.052,-1.291 a 6.15,6.15 0 0 0 -0.123,1.065 v 0.041 a 7.757,7.757 0 0 0 7.1,7.72 7.753,7.753 0 0 0 8.298,-6.408 c 0.01,-0.102 0.021,-0.2 0.036,-0.302 a 7.975,7.975 0 0 0 -0.507,-3.896 z"
         style="fill:url(#c);stroke:none;stroke-width:1.35476"
         transform="matrix(0.98418,0,0,0.98418,-0.666,-0.92)"
         id="path72" />
      <g
         style="stroke-width:1.0324"
         id="g73">
        <path
           d="M 11.602,7.688 A 0.984,0.984 0 0 0 11.641,7.715 3.272,3.272 0 0 0 11.09,7 C 9.254,5.164 10.609,3.016 10.84,2.906 9.355,3.773 8.852,5.383 8.805,6.188 8.875,6.184 8.945,6.176 9.016,6.176 a 2.989,2.989 0 0 1 2.586,1.512 z"
           style="fill:url(#d);stroke:none;stroke-width:1.0324"
           transform="matrix(1.29149,0,0,1.29149,0.376,0.377)"
           id="path73" />
      </g>
      <g
         style="stroke-width:1.0324"
         id="g74">
        <path
           d="M 9.02,8.055 C 9.008,8.203 8.488,8.711 8.309,8.711 c -1.684,0 -1.954,1.016 -1.954,1.016 0.075,0.855 0.668,1.558 1.391,1.933 0.031,0.016 0.066,0.031 0.098,0.047 a 2.584,2.584 0 0 0 0.945,0.219 c 2.945,0.14 3.516,-3.52 1.391,-4.582 0.5,-0.067 1.008,0.058 1.422,0.344 A 2.989,2.989 0 0 0 9.016,6.176 c -0.071,0 -0.141,0.008 -0.211,0.012 A 2.952,2.952 0 0 0 7.18,6.812 c 0.09,0.079 0.191,0.18 0.406,0.391 0.402,0.395 1.43,0.805 1.434,0.852 z"
           style="fill:url(#e);stroke:none;stroke-width:1.0324"
           transform="matrix(1.29149,0,0,1.29149,0.376,0.377)"
           id="path74" />
      </g>
      <g
         style="stroke-width:1.0324"
         id="g75">
        <path
           d="M 6.906,6.617 7.027,6.699 A 2.716,2.716 0 0 1 7.012,5.254 4.403,4.403 0 0 0 5.586,6.352 c 0.031,0 0.887,-0.016 1.32,0.265 z"
           style="fill:url(#f);stroke:none;stroke-width:1.0324"
           transform="matrix(1.29149,0,0,1.29149,0.376,0.377)"
           id="path75" />
      </g>
      <g
         style="stroke-width:1.0324"
         id="g76">
        <path
           d="m 3.152,9.332 c 0.457,2.695 2.899,4.75 5.672,4.832 2.567,0.07 4.203,-1.418 4.883,-2.871 A 5.38,5.38 0 0 0 13.891,7.305 V 7.297 c 0,-0.004 -0.004,-0.004 0,-0.004 v 0.008 c 0.211,1.371 -0.489,2.695 -1.575,3.594 l -0.004,0.007 C 10.191,12.629 8.164,11.945 7.75,11.664 7.723,11.648 7.695,11.637 7.664,11.621 6.43,11.031 5.918,9.902 6.027,8.938 A 1.52,1.52 0 0 1 4.629,8.059 2.226,2.226 0 0 1 6.801,7.969 C 7.5,8.289 8.297,8.32 9.02,8.059 9.016,8.008 7.988,7.602 7.586,7.203 A 7.303,7.303 0 0 0 7.184,6.816 1.946,1.946 0 0 0 7.031,6.699 L 6.906,6.617 C 6.477,6.34 5.621,6.355 5.59,6.355 5.355,6.059 5.371,5.078 5.383,4.875 A 1.052,1.052 0 0 0 5.188,4.98 4.355,4.355 0 0 0 4.609,5.473 4.95,4.95 0 0 0 4.055,6.137 5,5 0 0 0 3.262,7.926 C 3.258,7.938 3.047,8.855 3.152,9.332 Z"
           style="fill:url(#g);stroke:none;stroke-width:1.0324"
           transform="matrix(1.29149,0,0,1.29149,0.376,0.377)"
           id="path76" />
      </g>
      <g
         style="stroke-width:1.0324"
         id="g77">
        <path
           d="m 11.09,7 c 0.219,0.211 0.402,0.453 0.551,0.715 l 0.089,0.074 c 1.336,1.234 0.637,2.981 0.582,3.106 1.09,-0.899 1.786,-2.223 1.579,-3.594 C 13.219,5.637 12.086,4.965 11.164,3.504 A 4.566,4.566 0 0 1 11.023,3.277 C 11,3.234 10.977,3.195 10.957,3.152 A 1.05,1.05 0 0 1 10.871,2.922 0.017,0.017 0 0 0 10.855,2.906 c -0.003,-0.004 -0.007,-0.004 -0.011,0 L 10.84,2.91 C 10.609,3.016 9.254,5.164 11.09,7 Z"
           style="fill:url(#h);stroke:none;stroke-width:1.0324"
           transform="matrix(1.29149,0,0,1.29149,0.376,0.377)"
           id="path77" />
      </g>
      <g
         style="stroke-width:1.0324"
         id="g78">
        <path
           d="M 11.727,7.789 C 11.699,7.762 11.668,7.738 11.641,7.715 11.629,7.707 11.613,7.699 11.602,7.688 A 2.037,2.037 0 0 0 10.176,7.344 c 2.129,1.062 1.558,4.722 -1.387,4.582 A 2.56,2.56 0 0 1 7.844,11.707 C 7.812,11.691 7.777,11.676 7.746,11.66 l 0.004,0.004 c 0.41,0.277 2.438,0.965 4.559,-0.766 l 0.003,-0.007 C 12.367,10.77 13.066,9.023 11.727,7.789 Z"
           style="fill:url(#i);stroke:none;stroke-width:1.0324"
           transform="matrix(1.29149,0,0,1.29149,0.376,0.377)"
           id="path78" />
      </g>
      <g
         style="stroke-width:1.0324"
         id="g79">
        <path
           d="m 6.355,9.727 c 0,0 0.27,-1.016 1.954,-1.016 0.179,0 0.699,-0.508 0.711,-0.656 C 8.297,8.316 7.5,8.285 6.801,7.969 A 2.234,2.234 0 0 0 4.625,8.055 c 0.254,0.547 0.801,0.89 1.402,0.883 -0.109,0.964 0.399,2.089 1.637,2.683 L 7.746,11.66 C 7.023,11.285 6.43,10.582 6.355,9.727 Z"
           style="fill:url(#j);stroke:none;stroke-width:1.0324"
           transform="matrix(1.29149,0,0,1.29149,0.376,0.377)"
           id="path79" />
      </g>
    </g>
  </g>
</svg>
